<?xml version="1.0" encoding="utf-8"?>
<!-- Generator: Adobe Illustrator 17.0.2, SVG Export Plug-In . SVG Version: 6.00 Build 0)  -->
<!DOCTYPE svg PUBLIC "-//W3C//DTD SVG 1.1//EN" "http://www.w3.org/Graphics/SVG/1.1/DTD/svg11.dtd">
<svg version="1.1" id="Calque_1" xmlns="http://www.w3.org/2000/svg" xmlns:xlink="http://www.w3.org/1999/xlink" x="0px" y="0px"
	 width="2834.65px" height="2834.65px" viewBox="0 0 2834.65 2834.65" enable-background="new 0 0 2834.65 2834.65"
	 xml:space="preserve">
<g>
	<path fill="#FFFFFF" d="M1424.262,88.948c455.999,6.677,852.057,304.263,977.702,745.394
		c75.325,264.462,36.303,517.265-94.993,758.655c-228.208,419.565-531.065,782.431-851.621,1132.218
		c-33.218,36.247-44.492,36.151-77.886-0.123c-273.581-297.171-533.997-604.971-746.053-950.158
		c-80.376-130.836-160.596-262.607-201.94-413.247c-106.87-389.384,33.67-805.162,357.315-1054.527
		C973.309,163.446,1185.001,93.022,1424.262,88.948z M1044.844,1064.194c1.86,208.531,169.262,375.095,374.447,372.571
		c207.037-2.547,370.881-170.548,368.91-378.269c-1.934-203.828-170.832-367.645-377.727-366.365
		C1209.86,693.372,1043.051,863.117,1044.844,1064.194z"/>
</g>
</svg>
