<?xml version="1.0" encoding="utf-8"?>
<!-- Generator: Adobe Illustrator 18.1.1, SVG Export Plug-In . SVG Version: 6.00 Build 0)  -->
<!DOCTYPE svg PUBLIC "-//W3C//DTD SVG 1.1//EN" "http://www.w3.org/Graphics/SVG/1.1/DTD/svg11.dtd">
<svg version="1.1" id="Mode_Isolation" xmlns="http://www.w3.org/2000/svg" xmlns:xlink="http://www.w3.org/1999/xlink" x="0px"
	 y="0px" viewBox="1111 -1021.6 2834.6 2834.6" enable-background="new 1111 -1021.6 2834.6 2834.6" xml:space="preserve">
<g>
	<polygon fill="#FFD744" points="2376.2,103 2376.2,-492.8 1994.1,-492.8 1994.1,507 	"/>
	<path fill="#FFD744" d="M2853.5,197.2l679.2-686.5h-477.1L2752-169.9l-757.9,801.2v49.2c0,30.8-1.2,62.9-3.7,96.2
		c-2.4,33.3-9.7,64.1-21.9,92.5c-12.2,28.4-32.1,51.5-59.6,69.4c-27.6,17.9-66.6,26.8-116.8,26.8c-39.2,0-72-5.5-98.5-16.3
		l-235.3,248.7c39.1,23.7,81.3,42.5,126.9,56.1c68.2,20.3,138.8,30.4,211.8,30.4c129.8,0,232.9-19.9,309.1-59.6
		c76.3-39.8,134.7-89.2,175.3-148.5c40.5-59.2,70.6-122.9,82-191.1c8.8-53,11.7-91.2,12.6-137.4l235.6-245.3l507.4,746.4h479.5
		L2853.5,197.2z"/>
</g>
</svg>
