<?xml version="1.0" encoding="utf-8"?>
<!-- Generator: Adobe Illustrator 18.1.1, SVG Export Plug-In . SVG Version: 6.00 Build 0)  -->
<svg version="1.1" id="Mode_Isolation" xmlns="http://www.w3.org/2000/svg" xmlns:xlink="http://www.w3.org/1999/xlink" x="0px"
	 y="0px" viewBox="0 0 400 400" enable-background="new 0 0 400 400" xml:space="preserve">
<g>
	<polygon points="178.5,158.7 178.5,74.6 124.6,74.6 124.6,215.7 	"/>
	<path d="M245.9,172l95.8-96.9h-67.3l-42.8,45.1L124.6,233.2v6.9c0,4.3-0.2,8.9-0.5,13.6c-0.3,4.7-1.4,9-3.1,13.1
		c-1.7,4-4.5,7.3-8.4,9.8c-3.9,2.5-9.4,3.8-16.5,3.8c-5.5,0-10.2-0.8-13.9-2.3L49,313.2c5.5,3.3,11.5,6,17.9,7.9
		c9.6,2.9,19.6,4.3,29.9,4.3c18.3,0,32.9-2.8,43.6-8.4c10.8-5.6,19-12.6,24.7-21c5.7-8.4,10-17.3,11.6-27c1.2-7.5,1.7-12.9,1.8-19.4
		l33.2-34.6l71.6,105.3H351L245.9,172z"/>
</g>
</svg>
