<?xml version="1.0" encoding="utf-8"?>
<!-- Generator: Adobe Illustrator 17.0.2, SVG Export Plug-In . SVG Version: 6.00 Build 0)  -->
<!DOCTYPE svg PUBLIC "-//W3C//DTD SVG 1.1//EN" "http://www.w3.org/Graphics/SVG/1.1/DTD/svg11.dtd">
<svg version="1.1" id="Calque_1" xmlns="http://www.w3.org/2000/svg" xmlns:xlink="http://www.w3.org/1999/xlink" x="0px" y="0px"
	 width="2834.65px" height="2834.65px" viewBox="0 0 2834.65 2834.65" enable-background="new 0 0 2834.65 2834.65"
	 xml:space="preserve">
<g>
	<path fill="#FFFFFF" stroke="#1D1D1B" stroke-miterlimit="10" d="M2598.815,420.063c2.271,8.303-2.617,16.875-10.92,19.146
		l-2321.574,635.2c-8.303,2.272-16.875-2.617-19.146-10.92l-80.461-294.074c-2.272-8.302,2.617-16.875,10.92-19.146l2321.574-635.2
		c8.302-2.272,16.875,2.617,19.146,10.92L2598.815,420.063z"/>
	<circle fill="#FFFFFF" stroke="#1D1D1B" stroke-miterlimit="10" cx="267.408" cy="1067.525" r="125.674"/>
</g>
<g>
	<path fill="#FFFFFF" stroke="#1D1D1B" stroke-miterlimit="10" d="M254.841,1564.857v1139.695c0,8.608,6.978,15.586,15.586,15.586
		H2677.33c8.608,0,15.585-6.978,15.585-15.586V1564.857H254.841z"/>
	<path fill="#FFFFFF" stroke="#1D1D1B" stroke-miterlimit="10" d="M2692.916,1427.714v-319.469c0-8.608-6.978-15.586-15.585-15.586
		H270.427c-8.608,0-15.586,6.978-15.586,15.586v319.469H2692.916z"/>
</g>
</svg>
