<?xml version="1.0" encoding="utf-8"?>
<!-- Generator: Adobe Illustrator 17.0.2, SVG Export Plug-In . SVG Version: 6.00 Build 0)  -->
<!DOCTYPE svg PUBLIC "-//W3C//DTD SVG 1.1//EN" "http://www.w3.org/Graphics/SVG/1.1/DTD/svg11.dtd">
<svg version="1.1" id="Calque_1" xmlns="http://www.w3.org/2000/svg" xmlns:xlink="http://www.w3.org/1999/xlink" x="0px" y="0px"
	 width="113.39px" height="113.39px" viewBox="0 0 113.39 113.39" enable-background="new 0 0 113.39 113.39" xml:space="preserve">
<path fill="#FFFFFF" d="M95.695,32.504c-2.87,1.273-5.954,2.133-9.191,2.52c3.304-1.98,5.842-5.116,7.036-8.853
	c-3.092,1.834-6.517,3.166-10.162,3.883C80.459,26.944,76.3,25,71.697,25c-8.837,0-16.003,7.165-16.003,16.002
	c0,1.254,0.142,2.476,0.415,3.646c-13.3-0.667-25.091-7.038-32.984-16.72c-1.378,2.363-2.167,5.112-2.167,8.045
	c0,5.552,2.825,10.45,7.119,13.32c-2.624-0.083-5.091-0.803-7.249-2.001c-0.001,0.067-0.001,0.134-0.001,0.201
	c0,7.753,5.516,14.221,12.837,15.691c-1.343,0.366-2.756,0.562-4.216,0.562c-1.031,0-2.034-0.101-3.011-0.287
	c2.037,6.358,7.946,10.984,14.949,11.112c-5.477,4.293-12.377,6.852-19.874,6.852c-1.292,0-2.565-0.076-3.817-0.225
	c7.082,4.541,15.494,7.19,24.531,7.19c29.434,0,45.531-24.384,45.531-45.531c0-0.693-0.016-1.384-0.047-2.07
	C90.837,38.532,93.549,35.713,95.695,32.504z"/>
</svg>
