<?xml version="1.0" encoding="utf-8"?>
<!-- Generator: Adobe Illustrator 17.0.2, SVG Export Plug-In . SVG Version: 6.00 Build 0)  -->
<!DOCTYPE svg PUBLIC "-//W3C//DTD SVG 1.1//EN" "http://www.w3.org/Graphics/SVG/1.1/DTD/svg11.dtd">
<svg version="1.1" id="Calque_1" xmlns="http://www.w3.org/2000/svg" xmlns:xlink="http://www.w3.org/1999/xlink" x="0px" y="0px"
	 width="113.39px" height="113.39px" viewBox="0 0 113.39 113.39" enable-background="new 0 0 113.39 113.39" xml:space="preserve">
<g>
	<path fill="#FFFFFF" d="M61.921,42.453c2.116-0.18,4.067-0.551,5.997-0.461c2.834,0.131,4.141,1.702,4.038,4.512
		c-0.038,1.028-0.217,2.079-0.515,3.064c-1.656,5.47-4.752,10.095-8.654,14.185c-1.968,2.063-3.536,1.798-4.948-0.692
		c-0.563-0.992-1.089-2.065-1.335-3.168c-1.157-5.18-2.152-10.396-3.319-15.573c-0.985-4.37-1.871-8.788-3.276-13.028
		c-1.186-3.579-3.741-4.833-7.389-4.121c-1.788,0.349-3.753,0.862-5.155,1.933c-5.653,4.321-11.119,8.887-16.647,13.372
		c-0.109,0.088-0.13,0.285-0.216,0.488c1.022,1.331,2.048,2.669,3.103,4.044c1.53-0.884,2.947-1.705,4.367-2.521
		c1.884-1.083,2.971-0.988,4.189,0.838c1.05,1.576,1.996,3.309,2.555,5.108c2.191,7.058,4.128,14.195,6.33,21.249
		c1.055,3.379,2.153,6.823,3.832,9.91c2.603,4.786,7.089,6.433,12.188,4.531c2.875-1.072,5.728-2.614,8.101-4.546
		c9.807-7.981,17.647-17.657,23.635-28.796c2.463-4.582,4.194-9.41,4.083-14.728c-0.113-5.419-2.916-9.784-7.598-10.905
		c-6.255-1.498-12.136-0.545-16.946,4.119C65.159,34.352,63.348,38.279,61.921,42.453z"/>
	<path fill="#FFFFFF" d="M61.921,42.453c1.427-4.175,3.238-8.102,6.419-11.186c4.81-4.664,10.691-5.618,16.946-4.119
		c4.682,1.122,7.484,5.487,7.598,10.905c0.111,5.318-1.62,10.146-4.083,14.728c-5.988,11.14-13.828,20.816-23.635,28.796
		c-2.373,1.932-5.226,3.474-8.101,4.546c-5.099,1.902-9.584,0.255-12.188-4.531c-1.679-3.088-2.778-6.531-3.832-9.91
		c-2.202-7.054-4.139-14.191-6.33-21.249c-0.558-1.799-1.505-3.532-2.555-5.108c-1.217-1.826-2.305-1.921-4.189-0.838
		c-1.42,0.816-2.837,1.638-4.367,2.521c-1.055-1.375-2.081-2.712-3.103-4.044c0.086-0.204,0.108-0.4,0.216-0.488
		c5.528-4.485,10.994-9.051,16.647-13.372c1.402-1.071,3.367-1.584,5.155-1.933c3.648-0.712,6.203,0.542,7.389,4.121
		c1.405,4.24,2.291,8.658,3.276,13.028c1.167,5.177,2.162,10.393,3.319,15.573c0.246,1.103,0.772,2.175,1.335,3.168
		c1.412,2.489,2.98,2.755,4.948,0.692c3.902-4.09,6.999-8.715,8.654-14.185c0.298-0.985,0.477-2.036,0.515-3.064
		c0.103-2.81-1.204-4.381-4.038-4.512C65.988,41.903,64.036,42.274,61.921,42.453z"/>
</g>
</svg>
