<?xml version="1.0" encoding="utf-8"?>
<!-- Generator: Adobe Illustrator 18.1.1, SVG Export Plug-In . SVG Version: 6.00 Build 0)  -->
<!DOCTYPE svg PUBLIC "-//W3C//DTD SVG 1.1//EN" "http://www.w3.org/Graphics/SVG/1.1/DTD/svg11.dtd">
<svg version="1.1" id="Calque_1" xmlns="http://www.w3.org/2000/svg" xmlns:xlink="http://www.w3.org/1999/xlink" x="0px" y="0px"
	 viewBox="-248 340.6 113.4 113.4" enable-background="new -248 340.6 113.4 113.4" xml:space="preserve">
<g>
	<path d="M-185.4,381.2c2.4-0.2,4.6-0.6,6.8-0.5c3.2,0.1,4.7,1.9,4.6,5.1c0,1.2-0.2,2.3-0.6,3.5c-1.9,6.2-5.4,11.4-9.8,16
		c-2.2,2.3-4,2-5.6-0.8c-0.6-1.1-1.2-2.3-1.5-3.6c-1.3-5.8-2.4-11.7-3.7-17.6c-1.1-4.9-2.1-9.9-3.7-14.7c-1.3-4-4.2-5.4-8.3-4.6
		c-2,0.4-4.2,1-5.8,2.2c-6.4,4.9-12.5,10-18.8,15.1c-0.1,0.1-0.1,0.3-0.2,0.6c1.2,1.5,2.3,3,3.5,4.6c1.7-1,3.3-1.9,4.9-2.8
		c2.1-1.2,3.3-1.1,4.7,0.9c1.2,1.8,2.3,3.7,2.9,5.8c2.5,8,4.7,16,7.1,24c1.2,3.8,2.4,7.7,4.3,11.2c2.9,5.4,8,7.3,13.7,5.1
		c3.2-1.2,6.5-2.9,9.1-5.1c11.1-9,19.9-19.9,26.6-32.5c2.8-5.2,4.7-10.6,4.6-16.6c-0.1-6.1-3.3-11-8.6-12.3
		c-7.1-1.7-13.7-0.6-19.1,4.6C-181.8,372.1-183.8,376.5-185.4,381.2z"/>
	<path d="M-185.4,381.2c1.6-4.7,3.7-9.1,7.2-12.6c5.4-5.3,12.1-6.3,19.1-4.6c5.3,1.3,8.4,6.2,8.6,12.3c0.1,6-1.8,11.4-4.6,16.6
		c-6.8,12.6-15.6,23.5-26.6,32.5c-2.7,2.2-5.9,3.9-9.1,5.1c-5.7,2.1-10.8,0.3-13.7-5.1c-1.9-3.5-3.1-7.4-4.3-11.2
		c-2.5-8-4.7-16-7.1-24c-0.6-2-1.7-4-2.9-5.8c-1.4-2.1-2.6-2.2-4.7-0.9c-1.6,0.9-3.2,1.8-4.9,2.8c-1.2-1.6-2.3-3.1-3.5-4.6
		c0.1-0.2,0.1-0.5,0.2-0.6c6.2-5.1,12.4-10.2,18.8-15.1c1.6-1.2,3.8-1.8,5.8-2.2c4.1-0.8,7,0.6,8.3,4.6c1.6,4.8,2.6,9.8,3.7,14.7
		c1.3,5.8,2.4,11.7,3.7,17.6c0.3,1.2,0.9,2.5,1.5,3.6c1.6,2.8,3.4,3.1,5.6,0.8c4.4-4.6,7.9-9.8,9.8-16c0.3-1.1,0.5-2.3,0.6-3.5
		c0.1-3.2-1.4-4.9-4.6-5.1C-180.8,380.6-183,381-185.4,381.2z"/>
</g>
</svg>
