<?xml version="1.0" encoding="utf-8"?>
<!-- Generator: Adobe Illustrator 17.0.2, SVG Export Plug-In . SVG Version: 6.00 Build 0)  -->
<!DOCTYPE svg PUBLIC "-//W3C//DTD SVG 1.1//EN" "http://www.w3.org/Graphics/SVG/1.1/DTD/svg11.dtd">
<svg version="1.1" id="Calque_1" xmlns="http://www.w3.org/2000/svg" xmlns:xlink="http://www.w3.org/1999/xlink" x="0px" y="0px"
	 width="2834.65px" height="2834.65px" viewBox="0 0 2834.65 2834.65" enable-background="new 0 0 2834.65 2834.65"
	 xml:space="preserve">
<path fill="#FFFFFF" d="M1418.632,706.441c193.014,1.762,369.159,42.602,534.634,107.75
	c222.477,87.59,409.44,204.067,573.425,337.159c96.833,78.591,182.3,163.675,273.358,245.591c10.405,9.36,10.25,16.546,1.003,26.34
	c-180.763,191.464-390.709,365.571-653.63,507.755c-162.469,87.861-339.465,156.937-544.643,187.864
	c-185.443,27.953-364.776,12.58-539.409-34.978c-206.828-56.326-381.157-145.849-540.765-249.559
	c-187.85-122.061-348.163-259.576-487.817-408.518c-11.064-11.8-10.606-19.506,0.567-31.037
	c178.59-184.3,386.297-350.833,642.448-487.471c152.939-81.582,318.552-148.123,509.232-179.582
	c75.454-12.449,153.535-17.506,230.42-25.929C1417.847,703.364,1418.239,704.902,1418.632,706.441z M1416.218,1940.745
	c421.885,0.098,764.313-232.272,765.103-519.195c0.795-289.052-339.735-522.44-762.589-522.651
	c-424.489-0.212-766.099,231.494-766.541,519.926C651.75,1707.342,993.279,1940.647,1416.218,1940.745z"/>
<circle fill="#FFFFFF" cx="1417.325" cy="1417.325" r="300.5"/>
</svg>
